<?xml version="1.0" encoding="utf-8"?>
<!-- Generator: Adobe Illustrator 17.0.1, SVG Export Plug-In . SVG Version: 6.00 Build 0)  -->
<!DOCTYPE svg PUBLIC "-//W3C//DTD SVG 1.1//EN" "http://www.w3.org/Graphics/SVG/1.1/DTD/svg11.dtd">
<svg version="1.1" id="Layer_1" xmlns="http://www.w3.org/2000/svg" xmlns:xlink="http://www.w3.org/1999/xlink" x="0px" y="0px"
	 width="1536px" height="2048px" viewBox="0 0 1536 2048" enable-background="new 0 0 1536 2048" xml:space="preserve">
<path d="M362.184,1351.882l195.041-402.294c6.651-13.517,22.979-19.108,36.465-12.488c13.348,6.528,18.924,22.456,12.764,35.866
	c-8.909,38.845,25.405,59.95,25.405,59.95c16.22,10.875,44.36,32.44,65.649,61.21c58.168,78.597,62.3,116.367,100.255,253.732
	c12.211,44.191,18.355,61.916,24.468,81.93c7.235,23.547,26.004,44.406,50.012,36.188c20.582-7.05,25.452-27.249,17.802-57.231
	c-9.923-38.753-87.644-282.824-129.208-408.346C692.362,793.562,623.549,586.847,554.906,380.07
	c-3.072-9.247-5.975-18.555-8.755-27.894c-14.654-49.72,3.18-95.14,47.939-121.574c34.591-20.444,76.662-19.369,97.628-15.882
	c17.219,3.794,20.091-14.346,44.467-9.37c18.785,3.84,58.706,13.501,71.178,16.881c12.472,3.379,11.766,9.247,14.746,18.678
	c4.531,14.346,6.021,19.077,19.092,28.861c18.509,13.855,35.159,14.531,50.995,16.942c10.936,1.659,7.603,18.755-1.951,17.28
	c-8.924-1.398-132.096-14.193-140.867-15.114c-21.489-2.304-21.688-22.625-32.41-24.407c-9.477-2.749-19.139-4.746-36.234-5.837
	c-30.428-1.981-46.587,15.898-39.967,45.343c2.918,12.764,8.279,25.098,13.409,37.217c31.043,72.945,62.346,145.766,93.527,218.619
	c36.127,84.357,72.177,168.745,108.365,253.071c6.866,15.99,13.763,31.964,20.628,47.954l-32.486,11.72
	c-7.895-10.506-21.903-15.314-35.036-10.89c-16.451,5.499-25.329,23.286-19.83,39.736c5.499,16.435,23.316,25.329,39.752,19.83
	c12.933-4.347,21.151-16.297,21.412-29.199l34.299-12.38c0.046,0.107,0.092,0.215,0.123,0.323l37.786-13.609
	c0.323-12.826,8.525-24.684,21.412-29.015c16.435-5.499,34.253,3.379,39.752,19.83c5.499,16.451-3.379,34.237-19.814,39.736
	c-13.21,4.439-27.279-0.43-35.19-11.044l-35.85,12.918c8.955,20.797,17.879,41.595,26.819,62.377l-37.11,13.379
	c-7.926-10.506-21.903-15.314-35.036-10.89c-16.451,5.499-25.329,23.286-19.83,39.721c5.499,16.435,23.317,25.329,39.752,19.83
	c12.948-4.332,21.151-16.282,21.412-29.184l38.922-14.039c0.046,0.107,0.077,0.215,0.123,0.323l33.162-11.965
	c0.338-12.81,8.525-24.653,21.412-29c16.451-5.499,34.253,3.379,39.752,19.83c5.514,16.435-3.379,34.237-19.83,39.736
	c-13.179,4.424-27.249-0.43-35.159-11.044l-31.242,11.243c8.771,20.383,17.526,40.719,26.266,61.117l-45.542,16.389
	c-7.926-10.491-21.903-15.298-35.052-10.875c-16.451,5.484-25.313,23.301-19.814,39.736c5.514,16.451,23.317,25.283,39.752,19.814
	c12.948-4.332,21.151-16.297,21.381-29.169l47.324-17.05c0.031,0.108,0.077,0.215,0.123,0.307l24.776-8.909
	c0.338-12.826,8.525-24.699,21.396-29.03c16.451-5.468,34.237,3.364,39.767,19.814c5.484,16.435-3.379,34.253-19.83,39.767
	c-13.21,4.424-27.249-0.43-35.159-11.059l-22.917,8.264c33.3,78.059,66.14,156.38,100.224,234.132
	c27.418,62.484,35.451,127.089,11.858,190.863c-23.608,63.852-54.113,123.648-157.993,166.917
	c-98.442,41.057-208.957-1.121-268.524-66.463c-19.446-21.412-43.008-63.452-82.714-138.133
	c-30.689-57.8-49.152-118.794-124.17-124.047c-27.648-0.845-49.859,21.98-49.859,21.98s1.137-2.381,3.133-6.728
	c-6.912,12.887-22.748,18.109-35.989,11.643C361.124,1381.757,355.548,1365.414,362.184,1351.882z"/>
</svg>
