<?xml version="1.0" encoding="utf-8"?>
<!-- Generator: Adobe Illustrator 17.0.1, SVG Export Plug-In . SVG Version: 6.00 Build 0)  -->
<!DOCTYPE svg PUBLIC "-//W3C//DTD SVG 1.1//EN" "http://www.w3.org/Graphics/SVG/1.1/DTD/svg11.dtd">
<svg version="1.1" id="Layer_1" xmlns="http://www.w3.org/2000/svg" xmlns:xlink="http://www.w3.org/1999/xlink" x="0px" y="0px"
	 width="1536px" height="2048px" viewBox="0 0 1536 2048" enable-background="new 0 0 1536 2048" xml:space="preserve">
<path d="M1031.762,117.161c153.277,153.277-10.721,375.076-10.721,375.076L807.598,705.633l-63.974-64.005l13.363-13.348
	c9.339-9.339,8.955-24.883-0.86-34.698c-9.846-9.815-25.375-10.245-34.698-0.891l-53.407,53.361
	c-9.324,9.339-8.924,24.899,0.906,34.714c9.784,9.83,25.344,10.23,34.698,0.891l26.68-26.68l-15.13,15.13l63.974,64.005
	l-99.563,99.517l-63.974-64.005l13.332-13.332c9.354-9.339,8.955-24.868-0.875-34.698c-9.83-9.815-25.344-10.23-34.683-0.891
	l-53.407,53.361c-9.323,9.339-8.955,24.868,0.875,34.698s25.359,10.23,34.698,0.922l11.581-11.566l63.99,63.974l-97.029,97.014
	l-63.974-64.036l13.348-13.332c9.339-9.323,8.94-24.883-0.891-34.714c-9.815-9.83-25.359-10.214-34.683-0.906l-53.422,53.391
	c-9.324,9.339-8.955,24.868,0.86,34.667c9.83,9.846,25.375,10.26,34.714,0.937l35.604-35.589l-24.038,24.023l63.99,64.021
	l-363.049,362.941c0,0-89.595-26.711-103.711,2.043l185.841,185.948c27.863-13.179,6.666-99.195,6.666-99.195l276.772-276.649
	c-2.719,32.21,3.656,58.721,21.105,76.201c62.346,62.377,237.85-12.027,392.003-166.149
	c154.138-154.061,228.634-329.503,166.272-391.895c-17.48-17.434-43.899-23.823-76.124-21.12l78.551-78.536
	c0,0,215.27-170.296,373.847-11.735c27.203,27.203,56.632-40.965-2.488-100.101l-349.394-349.594
	C1072.727,60.575,1004.621,90.035,1031.762,117.161z M1022.991,765.276c43.469,43.5-22.794,151.941-130.268,259.384
	c-107.505,107.459-215.531,173.215-258.97,129.7c-18.386-18.386-19.569-50.934-6.881-90.409l305.756-305.556
	C972.073,745.708,1004.59,746.921,1022.991,765.276z"/>
</svg>
